<?xml version="1.0" encoding="UTF-8" standalone="no"?>
<svg
   xmlns:dc="http://purl.org/dc/elements/1.1/"
   xmlns:cc="http://creativecommons.org/ns#"
   xmlns:rdf="http://www.w3.org/1999/02/22-rdf-syntax-ns#"
   xmlns:svg="http://www.w3.org/2000/svg"
   xmlns="http://www.w3.org/2000/svg"
   xmlns:sodipodi="http://sodipodi.sourceforge.net/DTD/sodipodi-0.dtd"
   xmlns:inkscape="http://www.inkscape.org/namespaces/inkscape"
   version="1.1"
   id="svg2"
   viewBox="0 0 300 299.99999"
   height="300pt"
   width="300pt"
   sodipodi:docname="Reaalkool_logo.svg"
   style="fill-rule:evenodd"
   inkscape:version="0.92.2 (5c3e80d, 2017-08-06)">
  <sodipodi:namedview
     pagecolor="#ffffff"
     bordercolor="#666666"
     borderopacity="1"
     objecttolerance="10"
     gridtolerance="10"
     guidetolerance="10"
     inkscape:pageopacity="0"
     inkscape:pageshadow="2"
     inkscape:window-width="1920"
     inkscape:window-height="1005"
     id="namedview11"
     showgrid="false"
     inkscape:zoom="0.21024124"
     inkscape:cx="-1529.5078"
     inkscape:cy="561.26001"
     inkscape:window-x="-9"
     inkscape:window-y="-9"
     inkscape:window-maximized="1"
     inkscape:current-layer="svg2" />
  <metadata
     id="metadata20">
    <rdf:RDF>
      <cc:Work
         rdf:about="">
        <dc:format>image/svg+xml</dc:format>
        <dc:type
           rdf:resource="http://purl.org/dc/dcmitype/StillImage" />
        <dc:title></dc:title>
      </cc:Work>
    </rdf:RDF>
  </metadata>
  <defs
     id="defs18" />
  <g
     id="g4"
     transform="matrix(2.0546774,0,0,2.0546774,-717.7167,-708.76039)">
    <path
       id="path6"
       d="m 423.141,352.667 c 38.295,0 69.339,31.043 69.339,69.338 0,38.296 -31.044,69.339 -69.339,69.339 -38.296,0 -69.339,-31.043 -69.339,-69.339 0,-38.295 31.043,-69.338 69.339,-69.338 z m 0,1.5 c -37.467,0 -67.839,30.372 -67.839,67.838 0,37.467 30.372,67.839 67.839,67.839 37.467,0 67.839,-30.372 67.839,-67.839 0,-37.466 -30.372,-67.838 -67.839,-67.838 z"
       style="fill:#2c2c2b;stroke:none"
       inkscape:connector-curvature="0" />
    <g
       id="g8">
      <path
         id="path10"
         d="m 383.269,381.453 5.748,-16.319 c 0.16,-0.431 0.576,-0.739 1.063,-0.739 l 0.183,0.015 17.135,3.204 c 0.321,0.003 0.545,-0.073 0.729,-0.202 l 13.169,-11.281 c 0.203,-0.191 0.477,-0.305 0.777,-0.305 0.3,0 0.575,0.115 0.777,0.305 l 13.212,11.319 c 0.17,0.104 0.371,0.166 0.584,0.166 l 0.296,-0.041 17.013,-3.177 c 0.572,-0.006 0.967,0.266 1.146,0.658 l 5.797,16.452 c 0.115,0.275 0.333,0.494 0.607,0.609 l 16.45,5.797 c 0.394,0.177 0.668,0.574 0.668,1.034 l -3.217,17.296 c -0.005,0.348 0.071,0.573 0.2,0.757 l 11.433,13.344 c 0.104,0.172 0.165,0.373 0.165,0.589 0,0.268 -0.093,0.514 -0.249,0.708 l -11.339,13.232 c -0.132,0.185 -0.209,0.411 -0.209,0.655 0,0.075 0.007,0.148 0.021,0.218 l 3.189,17.069 c 0.006,0.612 -0.307,1.031 -0.745,1.188 l -16.388,5.773 c -0.276,0.123 -0.494,0.354 -0.6,0.639 l -5.792,16.438 c -0.183,0.381 -0.572,0.643 -1.022,0.643 l -17.204,-3.203 c -0.063,-0.01 -0.128,-0.016 -0.194,-0.016 -0.282,0 -0.54,0.103 -0.739,0.273 l -13.091,11.215 c -0.255,0.206 -0.5,0.298 -0.766,0.298 -0.273,0 -0.523,-0.097 -0.718,-0.257 l -13.133,-11.246 c -0.199,-0.174 -0.46,-0.28 -0.745,-0.28 -0.068,0 -0.135,0.006 -0.2,0.018 l -17.11,3.194 c -0.556,0.003 -0.956,-0.278 -1.13,-0.68 l -5.804,-16.466 c -0.126,-0.274 -0.358,-0.49 -0.643,-0.594 l -16.375,-5.771 c -0.408,-0.172 -0.694,-0.575 -0.694,-1.045 l 3.218,-17.308 c 0.003,-0.336 -0.074,-0.563 -0.207,-0.748 l -11.272,-13.158 c -0.216,-0.269 -0.306,-0.512 -0.306,-0.775 0,-0.288 0.107,-0.551 0.285,-0.751 l 11.242,-13.131 c 0.161,-0.195 0.257,-0.446 0.257,-0.719 0,-0.064 -0.005,-0.128 -0.015,-0.189 l -3.175,-16.982 c -0.017,-0.089 -0.023,-0.155 -0.023,-0.223 0,-0.478 0.296,-0.887 0.714,-1.054 l 16.339,-5.76 c 0.32,-0.114 0.574,-0.367 0.688,-0.686 z"
         style="fill:#2c2c2b;stroke:none"
         inkscape:connector-curvature="0" />
      <path
         id="path12"
         d="m 435.829,480.028 c 0,-1.174 0.952,-2.126 2.126,-2.126 1.174,0 2.126,0.952 2.126,2.126 0,1.174 -0.952,2.126 -2.126,2.126 -1.174,0 -2.126,-0.952 -2.126,-2.126 z"
         style="fill:#2c2c2b;stroke:none"
         inkscape:connector-curvature="0" />
    </g>
    <path
       id="path14"
       d="m 420.257,448.957 c 0,0.625 0.477,1.121 1.077,1.15 h 5.867 c 1.252,0 2.267,1.016 2.267,2.268 l 0.189,2.442 h -38.562 l 0.225,-2.442 c 0,-1.252 1.016,-2.268 2.268,-2.268 l 3.557,-0.001 c 0.626,0 1.134,-0.508 1.134,-1.134 l -0.467,-5.754 c -0.057,-0.586 -0.487,-1.014 -1.028,-1.064 h -4.659 c -1.253,0 -2.268,-0.825 -2.268,-1.842 0,-1.018 1.015,-1.843 2.268,-1.843 l 4.069,-10e-4 c 0.626,0 1.134,-0.508 1.134,-1.134 l -0.465,-5.846 c -0.085,-0.541 -0.554,-0.955 -1.119,-0.955 l -4.624,-0.002 c -1.252,0 -2.268,-0.825 -2.268,-1.842 0,-1.018 1.016,-1.843 2.268,-1.843 h 4.278 c 0.562,-0.067 0.997,-0.546 0.997,-1.126 l -2.848,-35.112 c -0.079,-0.657 -0.555,-1.088 -1.133,-1.088 l -4.771,-0.002 c -1.252,0 -2.268,-0.761 -2.268,-1.7 l -0.134,-1.894 33.287,-0.02 0.374,-0.003 h 4.956 9.56 c 11.742,0 21.26,9.518 21.26,21.26 v 2.164 c 0,11.741 -9.518,21.259 -21.26,21.259 l -11.647,10e-4 c -0.626,0 -1.133,0.508 -1.133,1.134 l -0.121,5.42 c -10e-4,0.467 0.246,0.847 0.609,1.036 h 14.795 c 0.852,0 1.543,0.691 1.543,1.542 v 1.189 l -0.015,0.212 c 0.732,4.512 4.752,7.963 9.602,7.963 5.369,0 9.721,-4.229 9.721,-9.445 0,-0.344 -0.019,-0.683 -0.056,-1.017 h 6.511 c 0.028,0.364 0.042,0.732 0.042,1.103 0,8.025 -6.59,14.531 -14.719,14.531 -7.186,0 -13.169,-5.082 -14.461,-11.804 h -13.104 c -0.348,0.181 -0.59,0.538 -0.609,0.952 z m 2.425,-59.26 c -0.626,0 -1.134,0.508 -1.134,1.134 l -0.803,35.958 h 5.794 c 8.767,0 15.874,-7.107 15.874,-15.874 v -5.345 c 0,-8.767 -7.107,-15.874 -15.874,-15.874 z"
       style="fill:#ffffff;stroke:none"
       inkscape:connector-curvature="0" />
  </g>
</svg>
